<?xml version="1.0" encoding="utf-8"?>
<!-- Generator: Adobe Illustrator 26.0.2, SVG Export Plug-In . SVG Version: 6.00 Build 0)  -->
<svg version="1.1" xmlns="http://www.w3.org/2000/svg" xmlns:xlink="http://www.w3.org/1999/xlink" x="0px" y="0px"
	 viewBox="0 0 5981.9 2663.5" style="enable-background:new 0 0 5981.9 2663.5;" xml:space="preserve">
<style type="text/css">
	.st0{fill:#FFFFFF;stroke:#000000;stroke-width:10;stroke-miterlimit:10;}
	.st1{stroke:#000000;stroke-width:10;stroke-miterlimit:10;}
	.st2{fill:none;stroke:#000000;stroke-width:10;stroke-miterlimit:10;}
	.st3{fill:none;stroke:#000000;stroke-width:5;stroke-miterlimit:10;}
	.st4{fill:#FFFFFF;stroke:#000000;stroke-width:5;stroke-miterlimit:10;}
	.st5{font-family:'MyriadPro-Regular';}
	.st6{font-size:323.0833px;}
	.st7{fill:#ED1C24;stroke:#ED1C24;stroke-miterlimit:10;}
	.st8{fill:#ED1C24;stroke:#ED1C24;stroke-width:5;stroke-miterlimit:10;}
	.st9{fill:#00AEEF;stroke:#00AEEF;stroke-width:5;stroke-miterlimit:10;}
</style>
<g id="cloudy-day">
	<circle class="st0" cx="4351" cy="2186.2" r="296.2"/>
	<path class="st0" d="M4478,2234.5h-42.4c-0.7-83.8-68.8-151.4-152.7-151.4c-49.8,0-94,23.8-121.9,60.7c-4.2-0.4-8.5-0.6-12.9-0.6
		c-60.5,0-112.2,37.9-132.6,91.3h-15.8c-45.6,0-82.6,37-82.6,82.6v27.2c0,45.6,37,82.6,82.6,82.6H4478c45.6,0,82.6-37,82.6-82.6
		v-27.2C4560.6,2271.5,4523.6,2234.5,4478,2234.5z"/>
	<path class="st0" d="M4680.4,2297.5H4638c-0.7-83.8-68.8-151.4-152.7-151.4c-49.8,0-94,23.8-121.9,60.7c-4.2-0.4-8.5-0.6-12.9-0.6
		c-60.5,0-112.2,37.9-132.6,91.3h-15.8c-45.6,0-82.6,37-82.6,82.6v27.2c0,45.6,37,82.6,82.6,82.6h478.3c45.6,0,82.6-37,82.6-82.6
		v-27.2C4763,2334.5,4726,2297.5,4680.4,2297.5z"/>
</g>
<g id="sunny">
	<circle class="st0" cx="5514.1" cy="518.4" r="201.2"/>
	<polygon class="st0" points="5514.1,278.6 5437.5,278.6 5475.8,194.9 5514.1,111.2 5552.3,194.9 5590.6,278.6 	"/>
	<polygon class="st0" points="5505.8,764.8 5582.4,764.8 5544.1,848.5 5505.8,932.2 5467.6,848.5 5429.3,764.8 	"/>
	<polygon class="st0" points="5757.1,504.4 5757.1,427.9 5840.8,466.1 5924.4,504.4 5840.8,542.7 5757.1,580.9 	"/>
	<polygon class="st0" points="5271.1,508.2 5271.1,584.7 5187.4,546.5 5103.7,508.2 5187.4,469.9 5271.1,431.7 	"/>
</g>
<g id="rain">
	<path class="st1" d="M4139.9,741.9l60.9-138c2.8-6.4,10.3-9.3,16.6-6.5v0c6.4,2.8,9.3,10.3,6.5,16.6l-60.9,138
		c-2.8,6.4-10.3,9.3-16.6,6.5l0,0C4140,755.8,4137.1,748.3,4139.9,741.9z"/>
	<path class="st0" d="M4735.3,222.7h-37.7c-0.6-74.5-61.2-134.7-135.9-134.7c-44.3,0-83.7,21.2-108.5,54c-3.8-0.3-7.6-0.5-11.5-0.5
		c-53.9,0-99.8,33.7-117.9,81.2h-14.1c-40.6,0-73.5,32.9-73.5,73.5v24.2c0,40.6,32.9,73.5,73.5,73.5h425.5
		c40.6,0,73.5-32.9,73.5-73.5v-24.2C4808.8,255.6,4775.9,222.7,4735.3,222.7z"/>
	<path class="st0" d="M4595.4,375.7h-37.7c-0.6-74.5-61.2-134.7-135.9-134.7c-44.3,0-83.7,21.2-108.5,54c-3.8-0.3-7.6-0.5-11.5-0.5
		c-53.9,0-99.8,33.7-117.9,81.2h-14.1c-40.6,0-73.5,32.9-73.5,73.5v24.2c0,40.6,32.9,73.5,73.5,73.5h425.5
		c40.6,0,73.5-32.9,73.5-73.5v-24.2C4668.9,408.6,4636,375.7,4595.4,375.7z"/>
	<path class="st0" d="M4839.1,375.7h-37.7c-0.6-74.5-61.2-134.7-135.9-134.7c-44.3,0-83.7,21.2-108.5,54c-3.8-0.3-7.6-0.5-11.5-0.5
		c-53.9,0-99.8,33.7-117.9,81.2h-14.1c-40.6,0-73.5,32.9-73.5,73.5v24.2c0,40.6,32.9,73.5,73.5,73.5h425.5
		c40.6,0,73.5-32.9,73.5-73.5v-24.2C4912.6,408.6,4879.7,375.7,4839.1,375.7z"/>
	<path class="st1" d="M4139.9,741.9l60.9-138c2.8-6.4,10.3-9.3,16.6-6.5v0c6.4,2.8,9.3,10.3,6.5,16.6l-60.9,138
		c-2.8,6.4-10.3,9.3-16.6,6.5l0,0C4140,755.8,4137.1,748.3,4139.9,741.9z"/>
	<path class="st1" d="M4268.8,706.8l60.9-138c2.8-6.4,10.3-9.3,16.6-6.5l0,0c6.4,2.8,9.3,10.3,6.5,16.6l-60.9,138
		c-2.8,6.4-10.3,9.3-16.6,6.5v0C4268.8,720.6,4265.9,713.2,4268.8,706.8z"/>
	<path class="st1" d="M4322.7,803.5l60.9-138c2.8-6.4,10.3-9.3,16.6-6.5l0,0c6.4,2.8,9.3,10.3,6.5,16.6l-60.9,138
		c-2.8,6.4-10.3,9.3-16.6,6.5v0C4322.8,817.3,4319.9,809.9,4322.7,803.5z"/>
	<path class="st1" d="M4453.5,741.9l60.9-138c2.8-6.4,10.3-9.3,16.6-6.5v0c6.4,2.8,9.3,10.3,6.5,16.6l-60.9,138
		c-2.8,6.4-10.3,9.3-16.6,6.5l0,0C4453.6,755.8,4450.7,748.3,4453.5,741.9z"/>
	<path class="st1" d="M4496.6,839.4l60.9-138c2.8-6.4,10.3-9.3,16.6-6.5l0,0c6.4,2.8,9.3,10.3,6.5,16.6l-60.9,138
		c-2.8,6.4-10.3,9.3-16.6,6.5v0C4496.6,853.2,4493.7,845.8,4496.6,839.4z"/>
	<path class="st1" d="M4626.9,757.8l60.9-138c2.8-6.4,10.3-9.3,16.6-6.5l0,0c6.4,2.8,9.3,10.3,6.5,16.6l-60.9,138
		c-2.8,6.4-10.3,9.3-16.6,6.5h0C4627,771.6,4624.1,764.1,4626.9,757.8z"/>
	<path class="st1" d="M4723.7,839.4l60.9-138c2.8-6.4,10.3-9.3,16.6-6.5l0,0c6.4,2.8,9.3,10.3,6.5,16.6l-60.9,138
		c-2.8,6.4-10.3,9.3-16.6,6.5v0C4723.8,853.2,4720.9,845.8,4723.7,839.4z"/>
</g>
<g id="lightning">
	<path class="st0" d="M3728,218h-37.7c-0.6-74.5-61.2-134.7-135.9-134.7c-44.3,0-83.7,21.2-108.5,54c-3.8-0.3-7.6-0.5-11.5-0.5
		c-53.9,0-99.8,33.7-117.9,81.2h-14.1c-40.6,0-73.5,32.9-73.5,73.5v24.2c0,40.6,32.9,73.5,73.5,73.5H3728
		c40.6,0,73.5-32.9,73.5-73.5v-24.2C3801.5,250.9,3768.6,218,3728,218z"/>
	<path class="st0" d="M3588.1,371h-37.7c-0.6-74.5-61.2-134.7-135.9-134.7c-44.3,0-83.7,21.2-108.5,54c-3.8-0.3-7.6-0.5-11.5-0.5
		c-53.9,0-99.8,33.7-117.9,81.2h-14.1c-40.6,0-73.5,32.9-73.5,73.5v24.2c0,40.6,32.9,73.5,73.5,73.5h425.5
		c40.6,0,73.5-32.9,73.5-73.5v-24.2C3661.6,403.9,3628.7,371,3588.1,371z"/>
	<path class="st0" d="M3831.8,371h-37.7c-0.6-74.5-61.2-134.7-135.9-134.7c-44.3,0-83.7,21.2-108.5,54c-3.8-0.3-7.6-0.5-11.5-0.5
		c-53.9,0-99.8,33.7-117.9,81.2h-14.1c-40.6,0-73.5,32.9-73.5,73.5v24.2c0,40.6,32.9,73.5,73.5,73.5h425.5
		c40.6,0,73.5-32.9,73.5-73.5v-24.2C3905.3,403.9,3872.4,371,3831.8,371z"/>
	<polygon class="st1" points="3253.2,703.6 3265.8,656 3285.7,581 3231.9,652 3178.2,723 3209.4,726.7 3196.8,774.3 3176.9,849.3 
		3230.7,778.3 3284.5,707.3 	"/>
	<polygon class="st1" points="3501.1,667.9 3512.5,633.3 3530.4,578.8 3487.7,628.9 3444.9,678.9 3467.8,683 3456.4,717.6 
		3438.5,772.1 3481.3,722.1 3524,672 	"/>
	<polygon class="st1" points="3708.1,716.1 3720.7,668.5 3740.6,593.5 3686.8,664.5 3633.1,735.5 3664.3,739.2 3651.7,786.8 
		3631.8,861.8 3685.6,790.8 3739.3,719.8 	"/>
</g>
<g id="mist">
	<path class="st0" d="M2558.9,243.2h-37.7c-0.6-74.5-61.2-134.7-135.9-134.7c-44.3,0-83.7,21.2-108.5,54c-3.8-0.3-7.6-0.5-11.5-0.5
		c-53.9,0-99.8,33.7-117.9,81.2h-14.1c-40.6,0-73.5,32.9-73.5,73.5v24.2c0,40.6,32.9,73.5,73.5,73.5h425.5
		c40.6,0,73.5-32.9,73.5-73.5v-24.2C2632.4,276.1,2599.5,243.2,2558.9,243.2z"/>
	<path class="st0" d="M2419.1,396.1h-37.7c-0.6-74.5-61.2-134.7-135.9-134.7c-44.3,0-83.7,21.2-108.5,54c-3.8-0.3-7.6-0.5-11.5-0.5
		c-53.9,0-99.8,33.7-117.9,81.2h-14.1c-40.6,0-73.5,32.9-73.5,73.5v24.2c0,40.6,32.9,73.5,73.5,73.5h425.5
		c40.6,0,73.5-32.9,73.5-73.5v-24.2C2492.6,429.1,2459.7,396.1,2419.1,396.1z"/>
	<path class="st0" d="M2662.8,396.1h-37.7c-0.6-74.5-61.2-134.7-135.9-134.7c-44.3,0-83.7,21.2-108.5,54c-3.8-0.3-7.6-0.5-11.5-0.5
		c-53.9,0-99.8,33.7-117.9,81.2h-14.1c-40.6,0-73.5,32.9-73.5,73.5v24.2c0,40.6,32.9,73.5,73.5,73.5h425.5
		c40.6,0,73.5-32.9,73.5-73.5v-24.2C2736.3,429.1,2703.4,396.1,2662.8,396.1z"/>
	<g>
		<g>
			<path d="M1958.7,815.4c21.9-12.8,47.2-19.7,71-27.8c25-8.5,50.1-16.7,75.6-24c50.4-14.4,102.1-24.9,154.7-25.4
				c26-0.2,52,1.9,77.4,7.4c25.5,5.5,50.1,14.3,74.4,23.6c48.4,18.5,96.6,37.2,147.1,49.3c49.6,11.9,101.2,17.8,152,11.1
				c6.6-0.9,13.2-1.9,19.7-3.1c4-0.8,6.2-5.5,5.2-9.2c-1.1-4.2-5.2-6-9.2-5.2c-50,9.5-101.5,5.6-151-5.1
				c-50.8-11-99.7-28.9-148.1-47.7c-24.5-9.5-49.2-18.9-74.7-25.4c-25.5-6.5-51.9-9.8-78.2-10.5c-53-1.4-105.8,7.6-156.8,21.2
				c-25.5,6.8-50.7,14.7-75.8,23.1c-24.7,8.2-50.1,15.9-74,26.3c-5.8,2.5-11.4,5.3-16.9,8.5C1942.8,807.3,1950.3,820.2,1958.7,815.4
				L1958.7,815.4z"/>
		</g>
	</g>
	<g>
		<g>
			<path d="M1949.6,705.3c21.9-12.8,47.2-19.7,71-27.8c25-8.5,50.1-16.7,75.6-24c50.4-14.4,102.1-24.9,154.7-25.4
				c26-0.2,52,1.9,77.4,7.4c25.5,5.5,50.1,14.3,74.4,23.6c48.4,18.5,96.6,37.2,147.1,49.3c49.6,11.9,101.2,17.8,152,11.1
				c6.6-0.9,13.2-1.9,19.7-3.1c4-0.8,6.2-5.5,5.2-9.2c-1.1-4.2-5.2-6-9.2-5.2c-50,9.5-101.5,5.6-151-5.1
				c-50.8-11-99.7-28.9-148.1-47.7c-24.5-9.5-49.2-18.9-74.7-25.4c-25.5-6.5-51.9-9.8-78.2-10.5c-53-1.4-105.8,7.6-156.8,21.2
				c-25.5,6.8-50.7,14.7-75.8,23.1c-24.7,8.2-50.1,15.9-74,26.3c-5.8,2.5-11.4,5.3-16.9,8.5C1933.7,697.2,1941.3,710.2,1949.6,705.3
				L1949.6,705.3z"/>
		</g>
	</g>
	<g>
		<g>
			<path d="M1958.7,925.4c21.9-12.8,47.2-19.7,71-27.8c25-8.5,50.1-16.7,75.6-24c50.4-14.4,102.1-24.9,154.7-25.4
				c26-0.2,52,1.9,77.4,7.4c25.5,5.5,50.1,14.3,74.4,23.6c48.4,18.5,96.6,37.2,147.1,49.3c49.6,11.9,101.2,17.8,152,11.1
				c6.6-0.9,13.2-1.9,19.7-3.1c4-0.8,6.2-5.5,5.2-9.2c-1.1-4.2-5.2-6-9.2-5.2c-50,9.5-101.5,5.6-151-5.1
				c-50.8-11-99.7-28.9-148.1-47.7c-24.5-9.5-49.2-18.9-74.7-25.4c-25.5-6.5-51.9-9.8-78.2-10.5c-53-1.4-105.8,7.6-156.8,21.2
				c-25.5,6.8-50.7,14.7-75.8,23.1c-24.7,8.2-50.1,15.9-74,26.3c-5.8,2.5-11.4,5.3-16.9,8.5C1942.8,917.3,1950.3,930.3,1958.7,925.4
				L1958.7,925.4z"/>
		</g>
	</g>
</g>
<g id="moon">
	<path class="st2" d="M1244.2,141.9c-43,0-84.3,7-122.5,19.8c125.6,21.4,222.2,151.8,222.2,309.4c0,160-99.6,292-228,310.3
		c39.9,14.1,83.1,21.8,128.4,21.8c198.3,0,359-148,359-330.6S1442.5,141.9,1244.2,141.9z"/>
</g>
<g id="cloudy-moon">
	<path class="st2" d="M333.2,141.9c-43,0-84.3,7-122.5,19.8c125.6,21.4,222.2,151.8,222.2,309.4c0,160-99.6,292-228,310.3
		c39.9,14.1,83.1,21.8,128.4,21.8c198.3,0,359-148,359-330.6S531.5,141.9,333.2,141.9z"/>
	<path class="st0" d="M601.7,673.2h-42.4c-0.7-83.8-68.8-151.4-152.7-151.4c-49.8,0-94,23.8-121.9,60.7c-4.2-0.4-8.5-0.6-12.9-0.6
		c-60.5,0-112.2,37.9-132.6,91.3h-15.8c-45.6,0-82.6,37-82.6,82.6v27.2c0,45.6,37,82.6,82.6,82.6h478.3c45.6,0,82.6-37,82.6-82.6
		v-27.2C684.3,710.1,647.3,673.2,601.7,673.2z"/>
	<path class="st0" d="M790.5,721.6h-42.4c-0.7-83.8-68.8-151.4-152.7-151.4c-49.8,0-94,23.8-121.9,60.7c-4.2-0.4-8.5-0.6-12.9-0.6
		c-60.5,0-112.2,37.9-132.6,91.3h-15.8c-45.6,0-82.6,37-82.6,82.6v27.2c0,45.6,37,82.6,82.6,82.6h478.3c45.6,0,82.6-37,82.6-82.6
		v-27.2C873.1,758.6,836.1,721.6,790.5,721.6z"/>
</g>
<g id="wind">
	<g>
		<path class="st3" d="M3357.3,2082.8c0-35.5-29.5-64.2-65.9-64.2"/>
		<g>
			<g>
				<line class="st3" x1="2872.9" y1="2192.8" x2="3225.5" y2="2192.8"/>
				<path class="st3" d="M3357.3,2082.8c0,60.8-59,110-131.8,110"/>
			</g>
			<path class="st3" d="M3206,2094c0-41.7,40.4-75.4,90.3-75.4"/>
		</g>
	</g>
	<g>
		<path class="st3" d="M3357.3,2388.3c0,35.5-29.5,64.2-65.9,64.2"/>
		<g>
			<g>
				<line class="st3" x1="2872.9" y1="2278.3" x2="3225.5" y2="2278.3"/>
				<path class="st3" d="M3357.3,2388.3c0-60.8-59-110-131.8-110"/>
			</g>
			<path class="st3" d="M3206,2377.2c0,41.7,40.4,75.4,90.3,75.4"/>
		</g>
	</g>
	<g>
		<g>
			<line class="st3" x1="2833.6" y1="2235.7" x2="3375.8" y2="2235.7"/>
			<path class="st3" d="M3578.4,2056.8c0,98.9-90.6,178.9-202.7,178.9"/>
		</g>
	</g>
</g>
<g id="humidity">
	<path class="st4" d="M2625.1,2110.2l-79.1-142.7l-101.8-183.6l-101.8,183.6l-79.1,142.7c-26.3,36.6-41.8,81.3-41.8,129.8
		c0,123,99.7,222.7,222.7,222.7c123,0,222.7-99.7,222.7-222.7C2666.9,2191.5,2651.4,2146.7,2625.1,2110.2z"/>
	<text transform="matrix(1 0 0 1 2318.4958 2333.0247)" class="st5 st6">%</text>
</g>
<g id="snow">
	<path class="st1" d="M1940.7,2310.5h-18.2l14-11.7c2.4-2,2.7-5.5,0.7-7.9c-2-2.4-5.5-2.7-7.9-0.7l-16.4,13.8v-21.4
		c0-3.1-2.5-5.6-5.6-5.6c-3.1,0-5.6,2.5-5.6,5.6v18.1l-11.6-13.9c-2-2.4-5.5-2.7-7.9-0.7c-2.4,2-2.7,5.5-0.7,7.9l13.8,16.4h-21.5
		c-3.1,0-5.6,2.5-5.6,5.6s2.5,5.6,5.6,5.6h18l-13.8,11.6c-2.4,2-2.7,5.5-0.7,7.9c2,2.4,5.5,2.7,7.9,0.7l16.4-13.8v21.5
		c0,3.1,2.5,5.6,5.6,5.6c3.1,0,5.6-2.5,5.6-5.6v-18.1l11.6,13.9c2,2.4,5.5,2.7,7.9,0.7c2.4-2,2.7-5.5,0.7-7.9l-13.8-16.4h21.5
		c3.1,0,5.6-2.5,5.6-5.6l0,0C1946.3,2313,1943.8,2310.5,1940.7,2310.5z"/>
	<path class="st0" d="M1824.1,1918.6h-37.7c-0.6-74.5-61.2-134.7-135.9-134.7c-44.3,0-83.7,21.2-108.5,54c-3.8-0.3-7.6-0.5-11.5-0.5
		c-53.9,0-99.8,33.7-117.9,81.2h-14.1c-40.6,0-73.5,32.9-73.5,73.5v24.2c0,40.6,32.9,73.5,73.5,73.5h425.5
		c40.6,0,73.5-32.9,73.5-73.5v-24.2C1897.6,1951.5,1864.7,1918.6,1824.1,1918.6z"/>
	<path class="st0" d="M1684.2,2071.5h-37.7c-0.6-74.5-61.2-134.7-135.9-134.7c-44.3,0-83.7,21.2-108.5,54c-3.8-0.3-7.6-0.5-11.5-0.5
		c-53.9,0-99.8,33.7-117.9,81.2h-14.1c-40.6,0-73.5,32.9-73.5,73.5v24.2c0,40.6,32.9,73.5,73.5,73.5h425.5
		c40.6,0,73.5-32.9,73.5-73.5V2145C1757.7,2104.4,1724.8,2071.5,1684.2,2071.5z"/>
	<path class="st0" d="M1927.9,2071.5h-37.7c-0.6-74.5-61.2-134.7-135.9-134.7c-44.3,0-83.7,21.2-108.5,54c-3.8-0.3-7.6-0.5-11.5-0.5
		c-53.9,0-99.8,33.7-117.9,81.2h-14.1c-40.6,0-73.5,32.9-73.5,73.5v24.2c0,40.6,32.9,73.5,73.5,73.5h425.5
		c40.6,0,73.5-32.9,73.5-73.5V2145C2001.4,2104.4,1968.5,2071.5,1927.9,2071.5z"/>
	<path class="st1" d="M1302.1,2297.5H1284l14-11.7c2.4-2,2.7-5.5,0.7-7.9c-2-2.4-5.5-2.7-7.9-0.7l-16.4,13.8v-21.4
		c0-3.1-2.5-5.6-5.6-5.6c-3.1,0-5.6,2.5-5.6,5.6v18.1l-11.6-13.9c-2-2.4-5.5-2.7-7.9-0.7s-2.7,5.5-0.7,7.9l13.8,16.4h-21.5
		c-3.1,0-5.6,2.5-5.6,5.6s2.5,5.6,5.6,5.6h18l-13.8,11.6c-2.4,2-2.7,5.5-0.7,7.9c2,2.4,5.5,2.7,7.9,0.7l16.4-13.8v21.5
		c0,3.1,2.5,5.6,5.6,5.6s5.6-2.5,5.6-5.6v-18.1l11.6,13.9c2,2.4,5.5,2.7,7.9,0.7c2.4-2,2.7-5.5,0.7-7.9l-13.8-16.4h21.5
		c3.1,0,5.6-2.5,5.6-5.6l0,0C1307.7,2300,1305.2,2297.5,1302.1,2297.5z"/>
	<path class="st1" d="M1393,2425.7h-18.2l14-11.7c2.4-2,2.7-5.5,0.7-7.9s-5.5-2.7-7.9-0.7l-16.4,13.8v-21.4c0-3.1-2.5-5.6-5.6-5.6
		c-3.1,0-5.6,2.5-5.6,5.6v18.1l-11.6-13.9c-2-2.4-5.5-2.7-7.9-0.7s-2.7,5.5-0.7,7.9l13.8,16.4h-21.5c-3.1,0-5.6,2.5-5.6,5.6
		s2.5,5.6,5.6,5.6h18l-13.8,11.6c-2.4,2-2.7,5.5-0.7,7.9s5.5,2.7,7.9,0.7l16.4-13.8v21.5c0,3.1,2.5,5.6,5.6,5.6
		c3.1,0,5.6-2.5,5.6-5.6v-18.1l11.6,13.9c2,2.4,5.5,2.7,7.9,0.7s2.7-5.5,0.7-7.9l-13.8-16.4h21.5c3.1,0,5.6-2.5,5.6-5.6l0,0
		C1398.6,2428.2,1396.1,2425.7,1393,2425.7z"/>
	<path class="st1" d="M1504.9,2310.5h-18.2l14-11.7c2.4-2,2.7-5.5,0.7-7.9c-2-2.4-5.5-2.7-7.9-0.7l-16.4,13.8v-21.4
		c0-3.1-2.5-5.6-5.6-5.6s-5.6,2.5-5.6,5.6v18.1l-11.6-13.9c-2-2.4-5.5-2.7-7.9-0.7c-2.4,2-2.7,5.5-0.7,7.9l13.8,16.4H1438
		c-3.1,0-5.6,2.5-5.6,5.6s2.5,5.6,5.6,5.6h18l-13.8,11.6c-2.4,2-2.7,5.5-0.7,7.9c2,2.4,5.5,2.7,7.9,0.7l16.4-13.8v21.5
		c0,3.1,2.5,5.6,5.6,5.6c3.1,0,5.6-2.5,5.6-5.6v-18.1l11.6,13.9c2,2.4,5.5,2.7,7.9,0.7c2.4-2,2.7-5.5,0.7-7.9l-13.8-16.4h21.5
		c3.1,0,5.6-2.5,5.6-5.6l0,0C1510.5,2313,1508,2310.5,1504.9,2310.5z"/>
	<path class="st1" d="M1605.7,2425.7h-18.2l14-11.7c2.4-2,2.7-5.5,0.7-7.9s-5.5-2.7-7.9-0.7l-16.4,13.8v-21.4c0-3.1-2.5-5.6-5.6-5.6
		c-3.1,0-5.6,2.5-5.6,5.6v18.1l-11.6-13.9c-2-2.4-5.5-2.7-7.9-0.7s-2.7,5.5-0.7,7.9l13.8,16.4h-21.5c-3.1,0-5.6,2.5-5.6,5.6
		s2.5,5.6,5.6,5.6h18l-13.8,11.6c-2.4,2-2.7,5.5-0.7,7.9s5.5,2.7,7.9,0.7l16.4-13.8v21.5c0,3.1,2.5,5.6,5.6,5.6
		c3.1,0,5.6-2.5,5.6-5.6v-18.1l11.6,13.9c2,2.4,5.5,2.7,7.9,0.7s2.7-5.5,0.7-7.9l-13.8-16.4h21.5c3.1,0,5.6-2.5,5.6-5.6l0,0
		C1611.3,2428.2,1608.8,2425.7,1605.7,2425.7z"/>
	<path class="st1" d="M1709.5,2306.2h-18.2l14-11.7c2.4-2,2.7-5.5,0.7-7.9c-2-2.4-5.5-2.7-7.9-0.7l-16.4,13.8v-21.4
		c0-3.1-2.5-5.6-5.6-5.6c-3.1,0-5.6,2.5-5.6,5.6v18.1l-11.6-13.9c-2-2.4-5.5-2.7-7.9-0.7c-2.4,2-2.7,5.5-0.7,7.9l13.8,16.4h-21.5
		c-3.1,0-5.6,2.5-5.6,5.6s2.5,5.6,5.6,5.6h18l-13.8,11.6c-2.4,2-2.7,5.5-0.7,7.9c2,2.4,5.5,2.7,7.9,0.7l16.4-13.8v21.5
		c0,3.1,2.5,5.6,5.6,5.6s5.6-2.5,5.6-5.6v-18.1l11.6,13.9c2,2.4,5.5,2.7,7.9,0.7c2.4-2,2.7-5.5,0.7-7.9l-13.8-16.4h21.5
		c3.1,0,5.6-2.5,5.6-5.6l0,0C1715.1,2308.7,1712.6,2306.2,1709.5,2306.2z"/>
	<path class="st1" d="M1830.3,2425.7h-18.2l14-11.7c2.4-2,2.7-5.5,0.7-7.9c-2-2.4-5.5-2.7-7.9-0.7l-16.4,13.8v-21.4
		c0-3.1-2.5-5.6-5.6-5.6s-5.6,2.5-5.6,5.6v18.1l-11.6-13.9c-2-2.4-5.5-2.7-7.9-0.7c-2.4,2-2.7,5.5-0.7,7.9l13.8,16.4h-21.5
		c-3.1,0-5.6,2.5-5.6,5.6s2.5,5.6,5.6,5.6h18l-13.8,11.6c-2.4,2-2.7,5.5-0.7,7.9c2,2.4,5.5,2.7,7.9,0.7l16.4-13.8v21.5
		c0,3.1,2.5,5.6,5.6,5.6c3.1,0,5.6-2.5,5.6-5.6v-18.1l11.6,13.9c2,2.4,5.5,2.7,7.9,0.7s2.7-5.5,0.7-7.9l-13.8-16.4h21.5
		c3.1,0,5.6-2.5,5.6-5.6l0,0C1835.9,2428.2,1833.4,2425.7,1830.3,2425.7z"/>
</g>
<g id="temp_-_hot">
	<path class="st3" d="M911.5,2285.6v-354.1c0-30.5-24.7-55.3-55.3-55.3h0c-30.5,0-55.3,24.7-55.3,55.3v354.1
		c-43,20.6-72.8,64.5-72.8,115.4c0,70.7,57.3,128,128,128c70.7,0,128-57.3,128-128C984.3,2350.1,954.5,2306.3,911.5,2285.6z"/>
	<circle class="st7" cx="856.2" cy="2403.1" r="59.2"/>
	<line class="st8" x1="856.2" y1="2343.8" x2="856.2" y2="2036"/>
</g>
<g id="temp_-_cold">
	<path class="st3" d="M511.7,2284.8v-350.5c0-30.2-24.5-54.7-54.7-54.7h0c-30.2,0-54.7,24.5-54.7,54.7v350.5
		c-42.6,20.4-72,63.8-72,114.2c0,70,56.8,126.8,126.8,126.8c70,0,126.8-56.8,126.8-126.8C583.7,2348.6,554.3,2305.2,511.7,2284.8z"
		/>
	<circle class="st9" cx="457" cy="2401.1" r="58.6"/>
	<line class="st9" x1="457" y1="2342.4" x2="457" y2="2238.2"/>
</g>
</svg>
